<svg width="800" height="286" viewBox="0 0 800 286" fill="none" xmlns="http://www.w3.org/2000/svg">
<g filter="url(#filter0_n_314_1240)">
<g clip-path="url(#clip0_314_1240)">
<rect width="800" height="286" rx="20" fill="url(#paint0_linear_314_1240)"/>
<path d="M400.198 34.638C403.024 -2.11629 435.153 -29.6233 471.966 -26.8078C479.961 -26.1948 487.52 -24.2 494.426 -21.0805C495.157 -22.0643 495.89 -23.0456 496.652 -24.0022C496.672 -24.3087 496.675 -24.6103 496.697 -24.9168C499.52 -61.6711 531.65 -89.1781 568.462 -86.3626C580.303 -85.4579 591.175 -81.5128 600.399 -75.3726C608.973 -100.311 633.581 -117.33 661.142 -115.222C678.643 -113.882 693.79 -105.099 703.709 -92.2234C716.114 -130.001 753.085 -155.911 794.567 -152.737C828.574 -150.134 856.598 -128.664 869.177 -99.3968C878.638 -103.359 889.152 -105.216 900.086 -104.378C936.898 -101.562 964.455 -69.4846 961.635 -32.7328C961.565 -31.8331 961.466 -30.9432 961.362 -30.0534C968.429 -31.272 975.761 -31.6526 983.239 -31.0816C1031.98 -27.3516 1068.47 15.1201 1064.74 63.7814C1061 112.443 1018.46 148.871 969.709 145.141C968.684 145.062 967.671 144.94 966.656 144.829C955.152 161.415 935.393 171.644 913.789 169.993C898.264 168.806 884.618 161.69 874.882 151.053C846.793 174.492 809.892 187.457 770.507 184.441C743.809 182.399 719.373 173.253 698.851 159.047C685.69 177.406 663.522 188.653 639.33 186.802C616.6 185.064 597.412 172.163 586.711 153.903C574.216 163.2 558.441 168.218 541.683 166.935C508.206 164.372 482.393 137.614 480.107 105.146C474.204 106.335 468.046 106.76 461.744 106.28C424.935 103.467 397.38 71.3923 400.198 34.638Z" fill="url(#paint1_linear_314_1240)"/>
<path opacity="0.2" d="M57.5 45.3011L59.7902 41L59.7239 45.8241L63.8459 43.0313L61.4381 47.2734L66.4482 46.6288L62.25 49.3169L67 50.9683L61.9741 51.4867L65.3758 55.0554L60.673 53.2852L61.9473 57.954L58.6451 54.3011L57.5 59L56.3549 54.3011L53.0527 57.954L54.3271 53.2852L49.6245 55.0554L53.0263 51.4867L48 50.9683L52.75 49.3169L48.5522 46.6288L53.5623 47.2734L51.1541 43.0313L55.2765 45.8241L55.2098 41L57.5 45.3011Z" fill="white"/>
<path d="M363 37.1692L364.688 34L364.639 37.5546L367.676 35.4968L365.902 38.6225L369.593 38.1475L366.5 40.1283L370 41.3451L366.297 41.7271L368.803 44.3566L365.338 43.0523L366.277 46.4924L363.844 43.8008L363 47.2632L362.156 43.8008L359.723 46.4924L360.662 43.0523L357.197 44.3566L359.704 41.7271L356 41.3451L359.5 40.1283L356.407 38.1475L360.099 38.6225L358.324 35.4968L361.362 37.5546L361.312 34L363 37.1692Z" fill="#FF820A"/>
<path opacity="0.2" d="M604.5 235.301L606.79 231L606.724 235.824L610.846 233.031L608.438 237.273L613.448 236.629L609.25 239.317L614 240.968L608.974 241.487L612.376 245.055L607.673 243.285L608.947 247.954L605.645 244.301L604.5 249L603.355 244.301L600.053 247.954L601.327 243.285L596.625 245.055L600.026 241.487L595 240.968L599.75 239.317L595.552 236.629L600.562 237.273L598.154 233.031L602.277 235.824L602.21 231L604.5 235.301Z" fill="white"/>
<path d="M319.5 226.301L321.79 222L321.724 226.824L325.846 224.031L323.438 228.273L328.448 227.629L324.25 230.317L329 231.968L323.974 232.487L327.376 236.055L322.673 234.285L323.947 238.954L320.645 235.301L319.5 240L318.355 235.301L315.053 238.954L316.327 234.285L311.625 236.055L315.026 232.487L310 231.968L314.75 230.317L310.552 227.629L315.562 228.273L313.154 224.031L317.277 226.824L317.21 222L319.5 226.301Z" fill="#FF820A"/>
<path d="M149.266 224.174C140.553 226.348 132.459 229.725 125.087 234.052C100.287 194.796 52.2819 173.963 4.74213 185.826C-50.1233 199.517 -85.083 251.938 -78.2982 306.641C-85.027 306.286 -91.923 306.907 -98.8027 308.624C-136.039 317.915 -158.695 355.615 -149.409 392.829C-140.123 430.044 -102.41 452.678 -65.1742 443.386C-56.9224 441.327 -49.3924 437.868 -42.7585 433.33C-23.9729 452.308 4.05179 461.186 31.8509 454.249C49.7012 449.794 64.5603 439.529 74.9509 425.986C90.4861 433.06 108.424 435.141 126.278 430.686C143.411 426.41 157.801 416.787 168.116 404.048C176.46 404.338 184.981 403.511 193.486 401.388C242.451 389.17 272.247 339.591 260.035 290.655C247.823 241.718 198.231 211.955 149.266 224.174Z" fill="url(#paint2_linear_314_1240)"/>
</g>
</g>
<defs>
<filter id="filter0_n_314_1240" x="0" y="0" width="800" height="286" filterUnits="userSpaceOnUse" color-interpolation-filters="sRGB">
<feFlood flood-opacity="0" result="BackgroundImageFix"/>
<feBlend mode="normal" in="SourceGraphic" in2="BackgroundImageFix" result="shape"/>
<feTurbulence type="fractalNoise" baseFrequency="1 1" stitchTiles="stitch" numOctaves="3" result="noise" seed="6859" />
<feColorMatrix in="noise" type="luminanceToAlpha" result="alphaNoise" />
<feComponentTransfer in="alphaNoise" result="coloredNoise1">
<feFuncA type="discrete" tableValues="0 0 0 0 0 0 0 0 0 0 0 0 0 0 0 0 0 0 0 0 0 1 1 1 1 1 1 1 1 1 0 0 0 0 0 0 0 0 0 0 0 0 0 0 0 0 0 0 0 0 0 0 0 0 0 0 0 0 0 0 0 0 0 0 0 0 0 0 0 0 0 0 0 0 0 0 0 0 0 0 0 0 0 0 0 0 0 0 0 0 0 0 0 0 0 0 0 0 0 0 "/>
</feComponentTransfer>
<feComposite operator="in" in2="shape" in="coloredNoise1" result="noise1Clipped" />
<feFlood flood-color="rgba(255, 255, 255, 0.3)" result="color1Flood" />
<feComposite operator="in" in2="noise1Clipped" in="color1Flood" result="color1" />
<feMerge result="effect1_noise_314_1240">
<feMergeNode in="shape" />
<feMergeNode in="color1" />
</feMerge>
</filter>
<linearGradient id="paint0_linear_314_1240" x1="-64.8026" y1="-44.6275" x2="817.062" y2="127.756" gradientUnits="userSpaceOnUse">
<stop stop-color="#0B1A3B"/>
<stop offset="1" stop-color="#2E3B6C"/>
</linearGradient>
<linearGradient id="paint1_linear_314_1240" x1="460.5" y1="-5.00002" x2="932.631" y2="-30.0874" gradientUnits="userSpaceOnUse">
<stop stop-color="#2E3B6C"/>
<stop offset="1" stop-color="#2E3B6C"/>
</linearGradient>
<linearGradient id="paint2_linear_314_1240" x1="265.988" y1="254.622" x2="-10.1093" y2="272.167" gradientUnits="userSpaceOnUse">
<stop stop-color="#3E45C5"/>
<stop offset="1" stop-color="#3E46C7"/>
</linearGradient>
<clipPath id="clip0_314_1240">
<rect width="800" height="286" rx="20" fill="white"/>
</clipPath>
</defs>
</svg>
